<svg xmlns="http://www.w3.org/2000/svg" width="250" height="150" viewBox="0 0 250 150"><rect width="100%" height="100%" fill="#EEE"/><path fill="#31343C" d="M77.59 95.29h-7.7q-.42-.98-.72-2.06-.31-1.08-.44-2.21-1.19 2.08-3.12 3.45-1.94 1.37-4.63 1.37-4.48 0-6.91-2.3-2.42-2.31-2.42-6.29 0-4.19 3.22-6.5 3.23-2.31 9.43-2.31h4.3v-2.27q0-2.05-1.08-3.19-1.08-1.13-3.19-1.13-1.87 0-2.89.91-1.01.91-1.01 2.52l-7.44-.03-.03-.16q-.18-3.61 3.14-6.23 3.32-2.63 8.73-2.63 5.11 0 8.3 2.6 3.19 2.6 3.19 7.4v11.78q0 2.01.31 3.77.3 1.77.96 3.51Zm-14.74-5.14q2.03 0 3.61-1 1.59-1.01 2.14-2.32v-4.04h-4.3q-2.45 0-3.72 1.23-1.26 1.22-1.26 2.96 0 1.43.95 2.3.95.87 2.58.87Zm27.4-35.99v41.13h-7.7V54.16h7.7Zm32.06 27.1v.56q0 6.38-2.85 10.2-2.85 3.82-8.23 3.82-2.47 0-4.33-1.04-1.86-1.04-3.15-3.04l-.58 3.53h-6.6V54.16h7.68v15.63q1.24-1.71 2.96-2.63 1.73-.93 3.97-.93 5.43 0 8.28 4.1 2.85 4.1 2.85 10.93Zm-7.67.56v-.56q0-4.16-1.23-6.6-1.23-2.44-4.18-2.44-1.79 0-3.03.75-1.24.75-1.95 2.15V87.2q.71 1.29 1.96 1.97 1.25.69 3.07.69 2.98 0 4.17-2.1 1.19-2.09 1.19-5.94Zm30.53 13.47-.69-4.11q-1.31 2.24-3.34 3.45-2.04 1.21-4.67 1.21-4.51 0-7.05-2.88-2.55-2.89-2.55-8.98V66.76h7.67v17.27q0 3.11 1.06 4.47 1.05 1.36 3.11 1.36 1.85 0 3.16-.59 1.32-.6 2.17-1.76V66.76h7.69v28.53h-6.56Zm12.37-28.53h7.14l.32 3.77q1.37-2.06 3.44-3.18t4.78-1.12q2.75 0 4.7 1.22 1.95 1.21 2.95 3.66 1.32-2.29 3.43-3.58 2.11-1.3 4.96-1.3 4.21 0 6.65 2.92 2.44 2.91 2.44 8.87v17.27h-7.7v-17.3q0-3.24-1.05-4.51-1.06-1.26-3.14-1.26-1.63 0-2.83.72-1.2.73-1.92 2.02 0 .5.03.86.03.35.03.72v18.75h-7.68v-17.3q0-3.16-1.05-4.47-1.06-1.3-3.16-1.3-1.56 0-2.73.59-1.18.6-1.94 1.68v20.8h-7.67V66.76Z"/></svg>